<?xml version="1.0" encoding="UTF-8"?><svg id="Layer_1" xmlns="http://www.w3.org/2000/svg" viewBox="0 0 71 48"><path d="M22.83,19.59h5.77v27.43h-5.77v-1.93c-2.44,1.88-5.44,2.91-8.53,2.91-7.88,0-14.3-6.59-14.3-14.69s6.41-14.69,14.3-14.69c3.19,0,6.15,1.08,8.53,2.91v-1.93ZM22.68,33.31c0-4.86-3.76-8.82-8.38-8.82s-8.38,3.95-8.38,8.82,3.76,8.82,8.38,8.82,8.38-3.95,8.38-8.82ZM39.43,47.02h-5.91V0h5.91v47.02ZM42.4,33.31c0-8.1,6.41-14.69,14.3-14.69s14.3,6.59,14.3,14.69-6.41,14.69-14.3,14.69-14.3-6.59-14.3-14.69ZM48.32,33.31c0,4.86,3.76,8.82,8.38,8.82s8.38-3.95,8.38-8.82-3.76-8.82-8.38-8.82-8.38,3.95-8.38,8.82Z"/></svg>