<svg id="Layer_1" data-name="Layer 1" xmlns="http://www.w3.org/2000/svg" width="494.53" height="138.3" viewBox="0 0 494.53 138.3"><title>Christian Dior SE logo - Brandlogos.net</title><path d="M138.23,317.55h64.2c55.2,0,76.8,32.4,76.8,66.7,0,34.9-27.7,66-80.4,66h-60.5a1.32,1.32,0,0,1-1.5-1.3c0-.7.7-1.3,1.7-1.3h11.3c3.5,0,5.8-2.1,5.8-6V326.35c0-2.9-1.4-6.1-6-6.1h-11.5a1.29,1.29,0,0,1-1.4-1.3c0-.6.2-1.4,1.5-1.4m40.1,126.5c0,2.9,1.3,3.8,3.2,3.8h17c41.9,0,57.1-32.1,57.1-64.3s-16.1-63.4-51.5-63.4H181c-2.4,0-2.6,2-2.6,2.9Zm107.3-126.5c-1,0-1.9.4-1.9,1.2a1.24,1.24,0,0,0,1.4,1.3h11.3c2.6,0,5.1,1.8,5.1,6.8v114.9c0,2.4-1.8,6-5,6h-11.2a1.27,1.27,0,0,0-1.4,1.4c0,.4-.1,1.1,1.4,1.1h54.4c.8,0,1.9-.1,1.9-.9s-.2-1.6-1.6-1.6h-10.5c-1.5,0-5.6-.9-5.6-5.5V325.65c0-3.3,2.1-5.5,5.9-5.5h10.3c.9,0,1.4-.5,1.4-1.2s-.5-1.3-1.7-1.3h-54.2Zm85,66.4c0-36.7,16.4-66.4,47.2-66.4,30.2,0,47.2,29.7,47.2,66.4s-15.5,66.4-47.2,66.4c-30.7.1-47.2-29.7-47.2-66.4m47.2,69.2c43.8,0,71.4-31,71.4-69.1s-27.3-69.2-71.4-69.2-71.4,31-71.4,69.1,28.5,69.2,71.4,69.2m211.4-3.7c-17.2,1.8-26.7-26.4-35.4-39.8-6.5-9.9-20.3-20-33.9-22,22.4-1.3,47.5-8.5,47.5-33.9,0-20.6-12.7-36.2-59.3-36.2h-53.7a1.27,1.27,0,0,0-1.4,1.2,1.34,1.34,0,0,0,1.4,1.3h12.3c2.6,0,5.1,1.8,5.1,6.8v114.9c0,2.4-1.8,6-5,6h-12.1a1.33,1.33,0,0,0-1.4,1.2,1.4,1.4,0,0,0,1.4,1.3h57c.8,0,1.5-.4,1.5-1.2s-.5-1.3-1.6-1.3h-11.5c-1.5,0-5.6-1-5.6-5.5V388h5.9c28.2,0,30.3,30.6,44.3,48.1,12,15,27.7,16.9,36.6,16.9a36.29,36.29,0,0,0,8.8-.7c1.5-.5,1.8-3.1-.9-2.8m-89-129.4h8.3c14.2,0,37.2,5.6,37.2,32.4,0,24.6-20.4,32.9-39.3,32.9h-12.1v-59.7c0-3.4,2.1-5.6,5.9-5.6" transform="translate(-136.73 -314.85)"/></svg>