<svg xmlns="http://www.w3.org/2000/svg" viewBox="0 0 266 80.4"><title>Etam SA logo - Brandlogos.net</title><path d="M456.9,480.31s-29.27-7.35-37.76,7.47c-9,15.68,18.77,15.88,18.77,15.88L435,508.08c-22.36-1.41-37.92,12.28-38,24.09-.06,20,39.89,4.36,39.89,4.36l-4.23,8.28c-17.81,10.13-58.59,12.85-53.27-11.73,5.18-23.93,33-28.32,33-28.32s-14-5.9-6.07-18.21c15.15-23.38,53.94-12,53.94-12Z" transform="translate(-379 -471.8)"/><path d="M477.41,507.37h12.51l2.47-7.26H481.7c5.2-8.83,9.14-15.64,9.14-15.64H476.52L443,539.37s-2.47,5.2,1,8.59,9,7.15,28-3.25l3-8.19a64.78,64.78,0,0,1-9.83,4.89c-5.45,1.9-8.66-.46-4.74-6.32,4-6,10.85-17.32,17-27.71" transform="translate(-379 -471.8)"/><path d="M519.54,538.15s-2.87,3.4-11.76,5.2c-19.64,4-11.13-13-5.41-19.66,8.93-10.34,20.64-14,27.75-14.42s4.43,2.69,4.43,2.69Zm15.44-3c6-9.28,16-28.62,16-28.62s-15.22-.87-20.12-.87c-3,0-30.14,1.93-41.72,18.9-26.88,39.37,22.21,24.81,28.7,19,0,0-2.84,6.93,4.09,6.93s20.3-5.46,20.3-5.46l2.69-7S529,544.4,535,535.12" transform="translate(-379 -471.8)"/><path d="M559.32,549.5H545.69l26.22-42.86h14.68l-4.06,6.55s17.89-8.13,27.14-8.13c8.78,0,5.9,8.26,5.9,8.26s13.24-7.08,21.23-7.08,10.62,3.54,5.77,11.8L624.08,549.5H609.27l18.35-29.89s7.53-9.6-6.7-4.16c-8.76,3.35-10.58,5.11-10.58,5.11L590.78,549.5H577.94l17.41-28.71s6.4-10.56-6.14-5.64c-9,3.52-9.81,4.34-9.81,4.34Z" transform="translate(-379 -471.8)"/></svg>