<svg id="Layer_1" data-name="Layer 1" xmlns="http://www.w3.org/2000/svg" width="291.5" height="48.75" viewBox="0 0 291.5 48.75"><title>Gymshark logo - Brandlogos.net</title><g id="g26"><g id="g18"><path id="path2" d="M233.32,356.56h10.53v15.06c0,7.61-3.89,12-11.17,12s-11.17-4.37-11.17-12V346.84c0-7.61,3.89-12,11.17-12s11.17,4.37,11.17,12v4.7h-7.13v-5.18c0-3.4-1.46-4.7-3.89-4.7s-3.89,1.3-3.89,4.7v25.75c0,3.4,1.46,4.7,3.89,4.7s3.89-1.3,3.89-4.7v-8.75h-3.4Z" transform="translate(-221.5 -334.86)" style="fill:#231f20"/><path id="path4" d="M254.7,367.41l-9.39-31.9h7.77l5.67,21.7,5.67-21.7h7.29l-9.55,31.9v15.87H254.7Z" transform="translate(-221.5 -334.86)" style="fill:#231f20"/><path id="path6" d="M290.49,369.35l5.18-33.85H306v47.61h-7.13V349l-5.18,34.17H286.6l-5.51-33.68v33.68h-6.48V335.51H285Z" transform="translate(-221.5 -334.86)" style="fill:#231f20"/><path id="path8" d="M321.58,334.86c7.29,0,11,4.37,11,12v1.46h-7.13v-1.94c0-3.4-1.3-4.7-3.72-4.7S318,343,318,346.36c0,9.88,14.58,11.66,14.58,25.26,0,7.61-3.89,12-11.17,12s-11.17-4.37-11.17-12v-2.92h7.13v3.4c0,3.4,1.46,4.7,3.89,4.7s3.89-1.3,3.89-4.7c0-9.88-14.57-11.66-14.57-25.26,0-7.61,3.72-12,11-12Z" transform="translate(-221.5 -334.86)" style="fill:#231f20"/><path id="path10" d="M344.42,383.12H337V335.51h7.45v20.4H353v-20.4h7.61v47.61H353v-20.4h-8.58Z" transform="translate(-221.5 -334.86)" style="fill:#231f20"/><path id="path12" d="M390.25,383.12h-7.61l-1.3-8.58h-9.23l-1.3,8.58H364l7.61-47.61h11Zm-17-15.06h7.29L377,343.93Z" transform="translate(-221.5 -334.86)" style="fill:#231f20"/><path id="path14" d="M409.36,383.12c-.49-1.3-.65-1.94-.65-5.83v-7.45c0-4.37-1.46-6-4.86-6h-2.59v19.43h-7.45V335.51h11.33c7.77,0,11.17,3.56,11.17,11v3.72q0,7.29-4.86,9.72c3.72,1.62,5,5.18,5,10.2v7.29c0,2.27,0,4,.81,5.83h-7.94v-.16Zm-8.1-40.81v14.57h2.92c2.75,0,4.53-1.3,4.53-5v-4.7c0-3.4-1.13-4.86-3.89-4.86h-3.56Z" transform="translate(-221.5 -334.86)" style="fill:#231f20"/><path id="path16" d="M430.89,364.17l-2.27,4.37v14.57h-7.45V335.51h7.45v20.73l9.88-20.73H446l-10.37,21.21L446,383.12h-7.77Z" transform="translate(-221.5 -334.86)" style="fill:#231f20"/></g><g id="g24"><path id="path20" d="M450.81,335.67H513s-28.5,31.74-42.91,47.45a37.93,37.93,0,0,1,1.78-3.4c-.65,0-1.3-2.59-2.11-3.89a16.25,16.25,0,0,1-2.43,1.13c-.81.49-1.3.33-1.78-.65a17.65,17.65,0,0,0-1.13-2.59c-.81.32-2.75,1.46-3.08,1.46l-10-4.21c.16,0,5-.16,7.12,0l3.24,2.75c.81-.81,1.46-2.1,2.11-2.75h1.78c.65.65,1.3,1.78,1.94,2.59l2.43-2.43h1.3c.65.65,1.46,1.62,2.11,2.27a.49.49,0,0,1,.32.16s1.3-1.46,1.78-2.1h1.46s18.3-27.53,18.46-27.85c-14.74-2.76-44.53-7.94-44.53-7.94Z" transform="translate(-221.5 -334.86)" style="fill:#231f20"/><path id="path22" d="M469,352l-10.2-5.67c6,1.46,12.15,2.92,18.14,4.21Z" transform="translate(-221.5 -334.86)" style="fill:#231f20"/></g></g></svg>