<?xml version="1.0" encoding="UTF-8"?><svg id="a" xmlns="http://www.w3.org/2000/svg" viewBox="0 0 77.9999 28.0015">
<title>KIKO logo - Brandlogos.net</title><path d="M54.2889,23.663c.312,0,.614.055.903.166.289.109.543.266.763.47.22.202.388.435.506.696.117.262.175.54.175.836,0,.297-.059.577-.173.836-.116.26-.286.493-.508.697-.224.204-.48.359-.767.472-.5797.2207-1.2203.2207-1.8,0-.2804-.1077-.5376-.2679-.758-.472-.2188-.1945-.3946-.4326-.516-.699-.1164-.2625-.1757-.5468-.174-.834-.0043-.5868.2477-1.1463.69-1.532.22-.204.47-.361.758-.47.287-.11.586-.166.9-.166h.001ZM23.3949,23.756l.664,2.133.024.073c.062.189.101.353.118.488.007-.073.022-.155.043-.244.024-.089.052-.197.09-.324l.671-2.126h1.187l.675,4.133h-1.119l-.258-1.785c-.017-.126-.032-.268-.05-.421-.0155-.1685-.0288-.3372-.04-.506-.0382.2218-.0931.4404-.164.654-.018.056-.033.096-.04.122l-.598,1.936h-.798l-.597-1.936-.034-.122c-.0732-.2124-.1288-.4305-.166-.652-.0242.3093-.0576.6177-.1.925l-.258,1.785h-1.114l.679-4.133h1.185ZM30.6469,23.756v4.133h-1.211v-4.133h1.211ZM34.6999,23.756v3.168h1.49v.965h-2.688v-4.133h1.198ZM41.1669,23.756l1.517,4.133h-1.191l-.222-.738h-1.7l-.229.738h-1.192l1.515-4.133h1.502ZM46.1519,23.756l1.659,2.126c.032.042.084.131.157.262.074.13.153.286.242.466-.0216-.1518-.039-.3042-.052-.457-.0104-.1181-.0161-.2365-.017-.355v-2.042h1.15v4.133h-1.15l-1.66-2.133c-.0583-.084-.1114-.1715-.159-.262-.0844-.1513-.1645-.3051-.24-.461.024.173.042.326.055.459.01.135.015.253.015.357v2.04h-1.155v-4.133s1.155,0,1.155,0ZM54.2889,24.616c-.332,0-.606.115-.823.346-.218.23-.326.521-.326.87,0,.354.106.645.321.87.214.23.49.345.828.345.332,0,.605-.116.823-.344.2204-.2358.3383-.5494.328-.872,0-.346-.11-.634-.332-.867-.2105-.2286-.5093-.3554-.82-.348h.001ZM40.4219,24.426l-.076.29c-.026.093-.051.18-.077.266l-.442,1.364h1.192l-.449-1.364c-.0203-.0669-.039-.1342-.056-.202l-.092-.355v.001ZM66.3999,0c2.435.018,4.864.51,7.018,1.705,1.798.983,3.285,2.592,4.026,4.56.32.88.506,1.817.547,2.76l.009.315v.193c-.015,1.421-.358,2.838-1.04,4.076-.936,1.745-2.507,3.064-4.263,3.86-2.888,1.284-6.138,1.592-9.232,1.104-2.369-.379-4.715-1.33-6.476-3.037-1.618-1.601-2.631-3.89-2.523-6.218.036-1.991.661-4.007,1.965-5.51,1.765-2.033,4.319-3.173,6.902-3.594.7861-.114,1.578-.1832,2.372-.207l.477-.007h.218ZM26.8729.315c-.006,6.058-.004,12.116-.002,18.174-1.099-.009-2.196,0-3.295-.006.005-6.056.007-12.108-.002-18.164l3.3-.004h-.001ZM52.3639.34c-3.456,2.42-6.88,4.892-10.324,7.338,3.57,3.61,7.165,7.196,10.758,10.786-1.449.049-2.899.004-4.35.022-2.917-3.049-5.82-6.116-8.731-9.17-1.334.968-2.68,1.915-4.006,2.892.01,2.091-.004,4.183.006,6.276-1.096.002-2.195-.002-3.295.004.003-6.058.003-12.116-.002-18.174,1.102.007,2.2,0,3.3.002-.011,2.991-.01,5.983-.003,8.972,4.039-3.007,8.114-5.96,12.15-8.972,1.5.013,3-.027,4.498.024h-.001ZM19.9379.337c-3.458,2.426-6.884,4.894-10.326,7.343,3.573,3.61,7.165,7.2,10.76,10.79-1.45.038-2.903.002-4.353.018-2.918-3.053-5.814-6.127-8.743-9.167-1.325.976-2.679,1.912-4.002,2.894.009,2.09-.006,4.18.009,6.27-1.093.003-2.187,0-3.282,0C-.0011,12.43.0009,6.374.0009.318c1.095.002,2.192-.005,3.286.004-.02,2.984-.008,5.971-.008,8.956C7.3339,6.298,11.3939,3.324,15.4289.318c1.504.012,3.005-.025,4.507.02l.002-.001ZM60.4179,3.792c-.8459.5712-1.5105,1.3729-1.915,2.31-.681,1.566-.746,3.342-.539,5.02.198.888.541,1.744,1.073,2.476,1.304,1.727,3.37,2.703,5.446,2.984,2.138.277,4.403.113,6.357-.887,1.534-.76,2.873-2.082,3.398-3.78.692-2.22.466-4.82-.9-6.724-1.155-1.61-3.017-2.503-4.881-2.89-2.726-.523-5.7-.108-8.038,1.49l-.001.001Z" style="fill-rule:evenodd;"/></svg>