<svg xmlns="http://www.w3.org/2000/svg" viewBox="0 0 310.58 66.54"><title>Lancome logo</title><path d="M449.18,538.26v-3.4h5.1c1.28,0,2.55,0,2.55,1.7,0,1.49-1.27,1.7-2.55,1.7Zm-2.34,6.8h2.34v-4.89h4.46c2.13,0,5.53,0,5.53-3.62,0-3.83-3.4-3.83-5.53-3.83h-6.8v12.33Z" transform="translate(-356.71 -478.73)" style="fill:#231f20;fill-rule:evenodd"/><path d="M467,540.17l2.55-5.53,2.55,5.53Zm-4.89,4.89h2.55l1.28-2.77h7l1.27,2.77h2.55l-6-12.33H468.1l-6,12.33Z" transform="translate(-356.71 -478.73)" style="fill:#231f20;fill-rule:evenodd"/><path d="M485.32,538.26v-3.62H490c1.91,0,3,.42,3,1.7,0,1.49-1.06,1.91-3,1.91Zm-2.34,6.8h2.34v-4.89h3.83l3.61,4.89h3l-3.83-5.1a3.29,3.29,0,0,0,3.4-3.61c0-3-2.13-3.62-4.89-3.62H483v12.33Z" transform="translate(-356.71 -478.73)" style="fill:#231f20;fill-rule:evenodd"/><polygon points="146.26 53.99 148.59 53.99 148.59 66.33 146.26 66.33 146.26 53.99 146.26 53.99" style="fill:#231f20;fill-rule:evenodd"/><path d="M522.52,536.55c-.42-1.27-1.49-2.12-4.46-2.12-1.7,0-3.19.42-3.19,1.48,0,.64.21,1.06,2.76,1.49l3,.43c2.76.42,4.25,1.48,4.25,3.4,0,3-2.76,4-6,4-5.31,0-6.59-2.55-7-3.4l2.34-.85c.43.85,1.49,2.13,4.68,2.13,1.91,0,3.62-.64,3.62-1.7,0-.64-.85-1.27-2.76-1.49l-3-.42c-2.77-.21-4.46-1.49-4.46-3.4,0-3.62,4.89-3.62,5.74-3.62,5.31,0,6.38,2.34,6.59,3.19l-2.13.85Z" transform="translate(-356.71 -478.73)" style="fill:#231f20;fill-rule:evenodd"/><path d="M579.49,518.48c.64,6.38,3.83,5.31,4,6H571.2c-.21-.21,3.4-.21,2.76-5.53l-3.19-24.23c-.21-.64-.21-1.28-.64-1.28-.21.21-10.84,26.15-10.84,26.15-.21.42-.42.64-.85,0-.21-.42-10-21.9-10-21.9-.42-1.06-1.28-2.76-1.49-3.19s-.64-.42-.64,1.28l-2.55,24.45c-.64,4.25,3.4,4,3.4,4.25h-8.93c0-.21,3,.21,3.61-4.25l3-27c-.21-5.31-3.83-5.1-3.83-5.53h9.35v.43l9.78,21.47.42.42c.21.64.21,1.06.64.42l9.57-22.75h8.93c0,.43-3.62.21-3.62,4.68l3.4,26.15Z" transform="translate(-356.71 -478.73)" style="fill:#231f20;fill-rule:evenodd"/><path d="M375.84,523.16H371c-1.7,0-3.83.21-3.83-1.7V493c0-4.46,4.89-4.46,5.1-4.89H357.13c-.21.42,4.68.42,4.68,5.1v27.42c0,3.61-5.1,3.61-5.1,3.83h26.57l1.49-7.87c-.64,0-.21,6.38-8.93,6.59Z" transform="translate(-356.71 -478.73)" style="fill:#231f20;fill-rule:evenodd"/><path d="M596.5,506.37v13.82c0,2.76-.21,3,1.7,3H608c7.87-.42,6.38-6,7-6.17l-.21,7.44H587.36c-.21-.21,4,.42,4-5.53V493.4c0-6-3.83-5.1-3.83-5.53h27.21l.21,7.23c-.42,0,1.06-5.74-7.23-6.16h-8.93c-1.49.42-2.34-.64-2.34,3v9.57c0,1.27.21,1.49,1.91,1.49h8.93c4.25,0,3.83-4,4-4v9.57c-.21,0,.21-4.46-3.83-4.25h-8.93c-1.91,0-2.13.64-2.13,1.91v.21Z" transform="translate(-356.71 -478.73)" style="fill:#231f20;fill-rule:evenodd"/><path d="M432.6,520.61c.43,4.46,3.83,3.4,3.83,3.83h-9.57c0-.42,3.83,0,3.83-4V492.76c0-4.68-4-4.68-4.25-5.1h9.78l20,24.87-.21-20.2c0-4.89-3.83-4.46-3.83-4.68h10c0,.21-3.83.21-4,4.68v31.25s.21,2.34-1.28.42c-.64-.85-24-30.4-24-30.4-.21-.42-.21,0-.21.64v26.36Z" transform="translate(-356.71 -478.73)" style="fill:#231f20;fill-rule:evenodd"/><path d="M419.63,519.76l-13.39-31.89c-1.06-1.06-1.49.21-1.49.21-1.28,3-13.6,32.53-13.6,32.53-1.7,4-3.83,3.61-3.83,3.83H396c0-.42-4.68.21-3-3.83l4.46-11.27c.64-.85.64-1.06,1.7-1.06h8.72c1.06,0,1.06,0,1.7,1.06l4.25,10.84c1.27,4.25-2.55,4-2.55,4.25h12.33c.21-.42-1.91.85-4-4.68Zm-19.56-13.18c-.85,0-.85-.64-.42-1.49,0,0,3.19-8.29,3.61-9.14.64-1.28,1.06-1.06,1.49,0l3.19,9.35c.42.85.85,1.28-.21,1.28Z" transform="translate(-356.71 -478.73)" style="fill:#231f20;fill-rule:evenodd"/><polygon points="176.66 7.23 161.77 0 147.11 7.23 161.77 2.76 176.66 7.23 176.66 7.23" style="fill:#231f20;fill-rule:evenodd"/><path d="M518.7,487a18.73,18.73,0,0,0-19.13,18.92c0,9.78,7.44,18.49,18.92,18.49s19.13-8.72,19.13-18.49A18.68,18.68,0,0,0,518.7,487Zm-.21,36.14h0c-7.23,0-11.9-6.8-11.9-17,0-11.9,4.89-17.64,11.9-17.64h0c7,0,11.91,5.74,11.91,17.64,0,10.21-4.89,16.79-11.91,17Z" transform="translate(-356.71 -478.73)" style="fill:#231f20;fill-rule:evenodd"/><path d="M483.41,522.95c8.5,0,12.12-6,13-6.16.21,0-4.25,7.65-13,7.65-19.77,0-19.56-18.07-19.56-18.07.64-12.54,10.84-20.2,20.62-19.13,2.76.42,3.83.85,5.74,1.27.85.43,3.4,1.7,4.25,1.28.64-.21,1.27-1.7,1.49-1.7v9.78c-.64,0-3-9.35-12.33-9.35-7.65,0-13.6,8.72-13.39,17.43.21,14.45,10.2,17,13.18,17Z" transform="translate(-356.71 -478.73)" style="fill:#231f20;fill-rule:evenodd"/><path d="M639.44,524h.85c1.28-5.53,3.19-11.69,7.65-14a8.79,8.79,0,0,0-2.55-2.34,46.09,46.09,0,0,1-3.4,8.08,40.42,40.42,0,0,0-2.55,8.29Z" transform="translate(-356.71 -478.73)" style="fill:#231f20;fill-rule:evenodd"/><path d="M640.93,515.93a34.2,34.2,0,0,0-5.74-7.86v-.64a11.36,11.36,0,0,1,5.31,3.83c1.06,1.91,1.06,3.83.42,4.67Z" transform="translate(-356.71 -478.73)" style="fill:#231f20;fill-rule:evenodd"/><path d="M635.4,510a23.29,23.29,0,0,1,4.46,6.8c.21.85-.21.64-.85.64-.42,0-2.13,0-3-2.55a22.62,22.62,0,0,1-.64-4.89Z" transform="translate(-356.71 -478.73)" style="fill:#231f20;fill-rule:evenodd"/><path d="M643.27,520a54.23,54.23,0,0,1,9.35-1.49l.42-.42a9.69,9.69,0,0,0-5.74-.85c-2.13.21-3.83,1.49-4,2.76Z" transform="translate(-356.71 -478.73)" style="fill:#231f20;fill-rule:evenodd"/><path d="M651.35,519.76a29.54,29.54,0,0,0-8.29,1.27c-.42.21-.21.64.21,1.27.42.43,1.49,1.7,4,.43a11.16,11.16,0,0,0,4-3Z" transform="translate(-356.71 -478.73)" style="fill:#231f20;fill-rule:evenodd"/><path d="M644.12,507.43h0c-.21-6.59-4-11.27-6.59-14.24,3-2.34,5.53-6.38,6.16-7a1.9,1.9,0,0,1,3,0A9.64,9.64,0,0,1,649,491.7a7.61,7.61,0,0,1-1.49,2.13c-.42-1.06-1.06-2.34-1.27-2.76l-.85.85c2.34,4.89,1.7,12.54-1.28,15.52Z" transform="translate(-356.71 -478.73)" style="fill:#231f20;fill-rule:evenodd"/><path d="M646,506.58c.85.64,2.13,1.7,2.34,1.91,0-6,3.61-7.65,6.16-8.08a14.23,14.23,0,0,1,1.49-6.59,33.74,33.74,0,0,0-3.62-9.14c-.21,4.25-1.7,7.23-4.68,10.42.42,2.55.85,8.08-1.7,11.48Z" transform="translate(-356.71 -478.73)" style="fill:#231f20;fill-rule:evenodd"/><path d="M650.07,510.41c-1.27-5.53,1.49-8.72,5.53-8.93,3.19,0,8.93,1.49,11.48,3.19-4.25,3.19-11.05,4.89-17,5.74Z" transform="translate(-356.71 -478.73)" style="fill:#231f20;fill-rule:evenodd"/><path d="M656.66,491.06l2.76-.85a7.63,7.63,0,0,1,1.7,4.46c.21.21.85.85.85,1.06-1.28,1.06-2.34,2.13-2.34,2.13a7.63,7.63,0,0,1-.85,2.76,27.78,27.78,0,0,1,7,1.91c1.06-.64,1.49-.85,1.49-1.49,0-.85-1.7-3-3.4-8.29-1.49-5.1-.42-7-1.49-7.65-1.06-.85-6.17,1.06-7.23,2.34,0,0,.85,1.91,1.49,3.61Z" transform="translate(-356.71 -478.73)" style="fill:#231f20;fill-rule:evenodd"/><path d="M660.06,495.1c.85.64.64.64.21.85-.42.43-.64.43-.64.43a8,8,0,0,0-.21-1.7c.21,0,.42,0,.64.42Z" transform="translate(-356.71 -478.73)" style="fill:#231f20;fill-rule:evenodd"/><path d="M659,492.34a1.64,1.64,0,0,1-.21-.64c.42-.42,1.49,1.7,1.28,2.13-.21.21-.21,0-.21,0-.21-.21-.42-.21-.64-.43v-.21a4.86,4.86,0,0,0-.21-.85Z" transform="translate(-356.71 -478.73)" style="fill:#231f20;fill-rule:evenodd"/><path d="M655.81,500.41h0A11.33,11.33,0,0,1,657.3,494v-.64a6.69,6.69,0,0,0-.42-1.27l.85-.21a2.14,2.14,0,0,1,.21.64,13.49,13.49,0,0,1,.85,4.89,4.3,4.3,0,0,1-1.27,3Z" transform="translate(-356.71 -478.73)" style="fill:#231f20;fill-rule:evenodd"/></svg>