<?xml version="1.0" encoding="UTF-8"?><svg id="Layer_1" xmlns="http://www.w3.org/2000/svg" viewBox="0 0 430 83.47"><defs><style>.cls-1{fill:#231916;}</style></defs><path class="cls-1" d="M188.3,15.54h-10.47v10.59h10.47v-10.59Z"/><path class="cls-1" d="M159.19,34.62h-13.84c-3.21,0-6.38.65-9.33,1.92-2.86,1.22-5.47,2.97-7.69,5.15-2.21,2.19-3.97,4.78-5.2,7.64-1.24,2.98-1.87,6.17-1.87,9.4s.64,6.42,1.87,9.4c2.46,5.84,7.09,10.49,12.91,12.97,2.95,1.25,6.12,1.89,9.33,1.89s6.37-.64,9.32-1.89c2.88-1.21,5.5-2.99,7.69-5.22,2.18-2.23,3.92-4.85,5.13-7.73,1.25-2.96,1.89-6.15,1.87-9.37V15.57h-10.19v19.04ZM145.35,44.82h13.84v13.92c.03,2.76-.77,5.46-2.27,7.76-1.51,2.3-3.66,4.1-6.19,5.17-3.47,1.42-7.36,1.42-10.83,0-2.54-1.06-4.71-2.86-6.23-5.16-1.52-2.3-2.33-5.01-2.32-7.77-.01-1.86.35-3.7,1.08-5.41.7-1.66,1.71-3.16,2.98-4.43,1.3-1.3,2.85-2.33,4.55-3.03s3.52-1.06,5.36-1.05h.04Z"/><path class="cls-1" d="M188.3,29.44h-10.48v51.84h10.48V29.44Z"/><path class="cls-1" d="M335.63,41.68c-2.19-2.19-4.77-3.94-7.61-5.15-2.97-1.27-6.17-1.92-9.4-1.89h-13.93V15.55h-10.15v43.2c-.02,3.22.62,6.4,1.87,9.36,2.46,5.85,7.09,10.5,12.91,12.98,2.98,1.25,6.17,1.89,9.4,1.88,3.15.02,6.27-.6,9.18-1.82,2.91-1.22,5.54-3.02,7.75-5.28,2.18-2.23,3.92-4.85,5.13-7.73,1.24-2.98,1.88-6.17,1.88-9.4s-.64-6.42-1.88-9.4c-1.22-2.85-2.96-5.45-5.14-7.65ZM304.69,44.84h13.96c1.85,0,3.68.36,5.38,1.08,1.65.71,3.15,1.72,4.42,2.99,1.26,1.27,2.27,2.78,2.97,4.43.72,1.71,1.09,3.56,1.08,5.42.01,3.72-1.44,7.3-4.05,9.95-1.27,1.27-2.76,2.29-4.41,2.99-3.47,1.42-7.36,1.42-10.83,0-2.54-1.06-4.71-2.86-6.23-5.16-1.52-2.3-2.33-5.01-2.32-7.77l.03-13.92Z"/><path class="cls-1" d="M49.16,34.61c-2.78,0-5.52.59-8.06,1.74-2.53,1.14-4.8,2.82-6.64,4.9-2.67-3.01-6.18-5.13-10.08-6.08-3.9-.95-7.99-.69-11.74.76-3.74,1.45-6.96,4.01-9.22,7.34C1.17,46.59-.03,50.54,0,54.57v26.28h10.11v-26.45c.06-2.52,1.1-4.92,2.9-6.69,1.79-1.77,4.2-2.76,6.72-2.77,2.51-.01,4.93.96,6.74,2.71,1.81,1.75,2.87,4.14,2.96,6.66v26.23h10.12v-26.12c-.01-2.57.99-5.04,2.79-6.87,1.8-1.83,4.25-2.86,6.81-2.88s5.02.99,6.84,2.8c1.82,1.81,2.85,4.27,2.87,6.84v26.53h10.06v-26.28c0-5.27-2.07-10.33-5.77-14.07-3.7-3.74-8.72-5.86-13.97-5.89Z"/><path class="cls-1" d="M119.32,49.07c-1.64-3.75-4.2-7.03-7.44-9.52-3.24-2.49-7.06-4.1-11.1-4.7-4.04-.6-8.16-.15-11.97,1.3-3.82,1.45-7.21,3.84-9.85,6.97-2.64,3.12-4.45,6.87-5.25,10.89-.8,4.02-.58,8.18.66,12.08,1.24,3.91,3.44,7.43,6.41,10.25s6.59,4.83,10.55,5.84c1.96.5,3.96.76,5.98.76.6,0,1.2,0,1.78-.07,3.71-.26,7.3-1.4,10.5-3.32,3.19-1.92,5.89-4.56,7.88-7.72l.92-1.45-8.46-5.51-.93,1.44c-1.25,1.97-2.97,3.58-5.01,4.7-2.04,1.12-4.32,1.7-6.65,1.7-1.17,0-2.34-.15-3.47-.45-1.87-.49-3.62-1.37-5.13-2.58l31.44-18.67-.86-1.95ZM106.12,47.95l-22.5,13.39c-.36-2-.3-4.05.2-6.01.77-3,2.51-5.67,4.94-7.57,2.44-1.9,5.43-2.94,8.52-2.95,3.23,0,6.35,1.13,8.85,3.19v-.04Z"/><path class="cls-1" d="M391.39,49.07c-1.64-3.75-4.2-7.03-7.44-9.52-3.24-2.49-7.06-4.1-11.1-4.7-4.04-.6-8.16-.15-11.97,1.3-3.82,1.45-7.2,3.84-9.85,6.97-2.64,3.12-4.45,6.87-5.25,10.89-.8,4.02-.58,8.18.66,12.08,1.24,3.91,3.44,7.43,6.4,10.25s6.59,4.83,10.55,5.84c1.97.51,3.99.76,6.03.76.59,0,1.19,0,1.78-.07,3.71-.26,7.3-1.4,10.5-3.32,3.19-1.92,5.89-4.56,7.88-7.72l.92-1.45-8.55-5.48-.93,1.44c-1.25,1.96-2.98,3.58-5.01,4.7-2.04,1.12-4.32,1.7-6.64,1.7-1.17,0-2.34-.15-3.47-.45-1.87-.49-3.62-1.37-5.13-2.58l31.49-18.73-.85-1.93ZM378.18,47.95l-22.5,13.39c-.36-2-.3-4.05.2-6.01.77-3,2.51-5.66,4.94-7.57,2.43-1.9,5.43-2.94,8.51-2.95,1.18,0,2.35.15,3.49.45,1.96.5,3.8,1.42,5.37,2.7Z"/><path class="cls-1" d="M212.9,46.1c3.22-1.92,7.07-2.48,10.7-1.56s6.75,3.26,8.67,6.49l.91,1.52,8.68-5.57-.85-1.44c-2.1-3.43-5-6.29-8.46-8.32-3.45-2.04-7.35-3.19-11.35-3.36-4-.17-7.98.65-11.59,2.39-3.61,1.74-6.74,4.34-9.12,7.58-2.38,3.24-3.93,7.02-4.51,11-.59,3.98-.19,8.05,1.16,11.84,1.34,3.79,3.59,7.19,6.55,9.91,2.96,2.71,6.53,4.66,10.41,5.66,2,.51,4.06.77,6.13.77.6,0,1.21,0,1.81-.07,3.83-.27,7.53-1.45,10.81-3.45,3.28-2,6.04-4.75,8.05-8.04l.9-1.45-8.65-5.56-.92,1.49c-1.26,2.07-3.03,3.79-5.14,4.97-2.11,1.18-4.49,1.8-6.9,1.79-1.21,0-2.4-.15-3.57-.46-2.72-.7-5.18-2.2-7.05-4.3-1.88-2.1-3.09-4.72-3.49-7.52-.4-2.8.04-5.65,1.26-8.2,1.22-2.55,3.16-4.67,5.58-6.11h0Z"/><path class="cls-1" d="M279.56,60.58c0,3.24-1.28,6.35-3.57,8.65-2.28,2.29-5.38,3.58-8.61,3.58s-6.32-1.29-8.61-3.58c-2.28-2.29-3.57-5.4-3.57-8.65v-25.56h-10.12v25.56c-.06,2.98.48,5.95,1.57,8.73,1.1,2.77,2.73,5.3,4.81,7.43s4.56,3.82,7.3,4.98c2.74,1.16,5.68,1.75,8.65,1.75s5.91-.6,8.65-1.75c2.74-1.16,5.22-2.85,7.3-4.98,2.08-2.13,3.72-4.66,4.81-7.43,1.1-2.77,1.63-5.74,1.57-8.73v-25.56h-10.21v25.56Z"/><path d="M385.6.03v29.35h15.2v15.28h29.2V0l-44.4.03ZM389.72,15.31V4.18h11.11v11.12h-11.11ZM414.8,15.31V4.18h11.11v11.12h-11.11ZM414.8,40.51v-11.17h11.11v11.17h-11.11Z"/></svg>