<?xml version="1.0" encoding="UTF-8"?><svg id="a" xmlns="http://www.w3.org/2000/svg" width="464.64" height="58.54" viewBox="0 0 464.64 58.54">
<title>Sephora logo - Brandlogos.net</title><path d="M31.59,3.61s-.19.53-2.8,7.61c-7.46-5.94-19.95-5.5-19.95,3.63,0,10.71,26.1,9.36,25.28,28.48-.65,15.36-19.55,18.88-34.13,11.49,1.27-2.71,2.6-5.31,3.5-7.45,11.02,6.52,20.51,3.53,22.08-1.71C29.84,31.31.11,35.74.11,15.4.11,6.84,10.02-6.46,31.59,3.61ZM59.75,2.43h34.15s-.1,3.08-.04,7.45h-25.56v15.28h18.13c-.06,3.05-.03,5.44-.03,7.01h-18.1v19.04h25.56c-.02,2.44-.02,4.88,0,7.31h-34.08l-.03-56.1ZM141.09,29.93c-2.06,0-3.59-.02-5.67-.03,0-10.47.02-20.25.02-20.25,0,0,2.49-.01,4.85-.01s15.37-1.02,15.79,9.44c.41,10.32-9.91,10.85-14.99,10.85h0ZM141.6,2.54c-3.03-.07-9.36-.11-14.77-.11l.02,56.1h8.59s-.03-10.71-.03-21.27c2.13-.04,6.55-.15,10.12-.25,4.95-.15,17.97-2.62,17.88-18.01-.1-17.29-18.81-16.39-21.82-16.46h0ZM361.87,28.4c-2.01,0-3.45-.04-5.49-.05,0-9.85.03-18.93.03-18.93,0,0,2.35-.03,4.63-.03s13.79-.66,14.78,8.49c1.17,10.8-11.57,10.53-13.95,10.53ZM380.78,58.53h10.68l-17.73-25.17c4.77-1.76,10.3-5.83,9.6-15.13-1.25-16.67-17.54-15.44-21.03-15.6-2.94-.14-9.26-.22-14.75-.19v56.09h8.85s-.03-12.55-.03-23.65c2.93.01,3.98-.04,8.41-.16,0,0,16,23.8,16,23.8ZM226.68,23.57V2.43h8.69v53.66h-8.69v-25.51l-28.96.04v25.47h-8.69V2.43h8.68v21.13s28.97,0,28.97,0ZM294.44,0c-18.05,0-29.8,13.1-29.8,29.27s11.75,29.27,29.8,29.27,29.8-13.1,29.8-29.27S312.49,0,294.44,0ZM294.44,7.97c-13.23,0-20.75,9.54-20.75,21.3s7.44,21.3,20.75,21.3,20.75-9.54,20.75-21.3-7.52-21.3-20.75-21.3ZM429.97,37.87l18.47-.11-9.38-27.35h-.12s-8.96,27.46-8.96,27.46ZM434.02,1.61h10.27l20.34,55.6-9.1-.02s-2.01-5.61-4.69-13.04l-22.94.14s-.92,2.86-3.66,12.9h-8.77S434.02,1.61,434.02,1.61Z" style="fill-rule:evenodd;"/></svg>