<svg xmlns="http://www.w3.org/2000/svg" viewBox="0 0 393 80.05"><title>True Religion Brand Jeans logo - Brandlogos.net</title><path d="M425.87,550.58a.91.91,0,0,0,.53-.82V537.19a.91.91,0,0,0-.53-.82c-.24-.12-.35-.25-.35-.42v-.49c0-.14.12-.22.34-.22h4.31a7.93,7.93,0,0,1,2.14.27,5.17,5.17,0,0,1,1.68.79,3.73,3.73,0,0,1,1.1,1.25,3.46,3.46,0,0,1,.4,1.67,4.17,4.17,0,0,1-.2,1.3,3.5,3.5,0,0,1-.63,1.15,4.53,4.53,0,0,1-1.15,1,7.24,7.24,0,0,1-1.72.73q4.08,1,4.09,4a3.56,3.56,0,0,1-.45,1.81,4,4,0,0,1-1.25,1.36,5.9,5.9,0,0,1-1.9.85,9.06,9.06,0,0,1-2.38.3h-4.15c-.16,0-.24-.06-.24-.2V551c0-.15.14-.3.37-.43m3.62-7.82q2.88,0,2.88-3.05a4.3,4.3,0,0,0-.4-2,2.49,2.49,0,0,0-.43-.6,1.76,1.76,0,0,0-.53-.36,2.9,2.9,0,0,0-.67-.18,6.18,6.18,0,0,0-.86,0v6.18Zm0,1.21v6.5a6.1,6.1,0,0,0,1.41-.18,2.3,2.3,0,0,0,1-.53,2.14,2.14,0,0,0,.58-.91,4.94,4.94,0,0,0,.19-1.49,3.71,3.71,0,0,0-.73-2.52,3.13,3.13,0,0,0-2.44-.84" transform="translate(-315.5 -471.97)" style="fill:#223059"/><path d="M442.83,535.26h3.54a8.26,8.26,0,0,1,4.53,1,3.43,3.43,0,0,1,1.56,3q0,3.26-3.77,4.19a7,7,0,0,1,1,.45,3.75,3.75,0,0,1,.72.53,2.72,2.72,0,0,1,.5.66,4.53,4.53,0,0,1,.35.91l1,3.33a1.53,1.53,0,0,0,.13.41,2,2,0,0,0,.16.34,1.29,1.29,0,0,0,.26.29,2.39,2.39,0,0,0,.42.25.22.22,0,0,1,.13.2v.6c0,.15-.1.23-.3.23h-2.72a.45.45,0,0,1-.5-.34L448,545.62a2.72,2.72,0,0,0-.64-1.24,1.6,1.6,0,0,0-.91-.3v5.7a.91.91,0,0,0,.52.82c.24.12.35.26.35.42v.48c0,.16-.12.24-.35.24h-4.21q-.3,0-.3-.22V551c0-.15.12-.3.35-.42a.91.91,0,0,0,.52-.82V537.19a.91.91,0,0,0-.52-.81q-.35-.17-.35-.43v-.46c0-.16.11-.24.34-.24m3.62,1.27v6.29a3.32,3.32,0,0,0,1.55-.29,2.13,2.13,0,0,0,.85-.76,2.82,2.82,0,0,0,.36-1.08,11.1,11.1,0,0,0,.07-1.23,6.69,6.69,0,0,0-.09-1.18,1.78,1.78,0,0,0-1.29-1.5,4.23,4.23,0,0,0-1.5-.22" transform="translate(-315.5 -471.97)" style="fill:#223059"/><path d="M459.33,551.45v-.54q0-.22.3-.35a1.38,1.38,0,0,0,.73-.91l3.14-12.32-.14-.72v-.39a.34.34,0,0,1,.2-.18l2.28-.83H466a.24.24,0,0,1,.24.18l3.62,14.35a1.52,1.52,0,0,0,.09.32.79.79,0,0,0,.14.24.91.91,0,0,0,.22.18l.34.18c.21.09.31.21.31.34v.46c0,.17-.09.25-.26.25h-4.53c-.24,0-.36-.09-.36-.25V551q0-.24.43-.41c.35-.14.53-.35.53-.6a.44.44,0,0,0,0-.11.91.91,0,0,0,0-.14l-.57-2.2h-3.53l-.57,2.12a.82.82,0,0,0,0,.2c0,.21.21.44.61.7s.4.31.4.44v.46c0,.17-.14.25-.4.25h-2.83c-.29,0-.44-.08-.44-.25m6.42-5.22-1.37-5.5-1.44,5.5Z" transform="translate(-315.5 -471.97)" style="fill:#223059"/><path d="M477.12,551.49V551c0-.15.12-.3.35-.43a.91.91,0,0,0,.52-.82V537.19a.91.91,0,0,0-.52-.81c-.24-.12-.35-.26-.35-.43v-.46c0-.16.12-.24.35-.24h2.83a1.05,1.05,0,0,1,.42.05.62.62,0,0,1,.22.28l4.14,8.48v-6.89a.91.91,0,0,0-.52-.81c-.24-.12-.35-.26-.35-.43v-.46c0-.16.12-.24.35-.24h3.05q.3,0,.3.22V536c0,.16-.12.3-.34.43a.91.91,0,0,0-.53.81v14.25c0,.23-.13.34-.39.34h-.6a.58.58,0,0,1-.57-.34l-5.56-11.55v9.85a.91.91,0,0,0,.53.82c.24.12.35.26.35.43v.47q0,.24-.35.24h-3c-.21,0-.3-.09-.3-.24" transform="translate(-315.5 -471.97)" style="fill:#223059"/><path d="M494.39,536v-.59c0-.1.1-.15.31-.15h3.51a7.14,7.14,0,0,1,5,1.87q2,1.89,2,6.23a11,11,0,0,1,0,1.2c0,.43-.08.91-.15,1.3a11.71,11.71,0,0,1-.3,1.33,9.06,9.06,0,0,1-.47,1.29,7.14,7.14,0,0,1-.68,1.17,4.93,4.93,0,0,1-.91,1c-.91.72-2.43,1.08-4.58,1.08h-3.47c-.16,0-.24-.05-.24-.18v-.53c0-.15.11-.3.34-.42a.91.91,0,0,0,.5-.82V537.19a.81.81,0,0,0-.44-.78c-.26-.14-.39-.31-.39-.46m4,.54v14a3.72,3.72,0,0,0,2.09-.51,1.81,1.81,0,0,0,.57-.67,5.6,5.6,0,0,0,.4-1,11.49,11.49,0,0,0,.24-1.21c.05-.43.1-.84.14-1.24s.05-.78.06-1.12,0-.62,0-.84v-1.94a4.44,4.44,0,0,0-.09-1.09c-.09-.37-.09-.73-.16-1.1a8.15,8.15,0,0,0-.24-1,5.43,5.43,0,0,0-.35-.91,2.78,2.78,0,0,0-.42-.6,1.81,1.81,0,0,0-.53-.4,3.39,3.39,0,0,0-.71-.24,8.51,8.51,0,0,0-1-.11" transform="translate(-315.5 -471.97)" style="fill:#223059"/><path d="M526.43,548.83V537.19a.91.91,0,0,0-.53-.81c-.23-.13-.34-.26-.34-.43v-.46c0-.16.11-.24.34-.24h4.21c.19,0,.28.07.28.22V536c0,.16-.11.3-.34.43a.91.91,0,0,0-.53.81v10.37a4.07,4.07,0,0,1-1.27,3.14,4.43,4.43,0,0,1-3.12,1.17,3.94,3.94,0,0,1-2.23-.56,1.65,1.65,0,0,1-.82-1.34,1,1,0,0,1,.44-.85,1.81,1.81,0,0,1,1.16-.35,1.61,1.61,0,0,1,.91.25.78.78,0,0,1,.37.65,1.81,1.81,0,0,1-.08.45,1,1,0,0,0,0,.24q0,.41.57.41c.63,0,1-.66,1-1.95" transform="translate(-315.5 -471.97)" style="fill:#223059"/><path d="M536.72,551c0-.14.15-.31.44-.48a.82.82,0,0,0,.39-.76V537.19a.91.91,0,0,0-.5-.82c-.23-.11-.34-.25-.34-.42v-.51c0-.14.11-.2.33-.2h8.26c.3,0,.44.06.44.18v3.1c0,.16,0,.26-.05.29a.68.68,0,0,1-.34,0h-.5a.32.32,0,0,1-.36-.27v0a3.79,3.79,0,0,0-.53-1.41,1.72,1.72,0,0,0-1.55-.57h-1.7v5.95h.62a1.34,1.34,0,0,0,.8-.18,2.88,2.88,0,0,0,.54-1.09,1.92,1.92,0,0,1,.14-.31.31.31,0,0,1,.17-.05h.72c.24,0,.35.09.35.26v4.07c0,.17-.11.24-.33.24h-.78a.17.17,0,0,1-.15-.09.51.51,0,0,1-.1-.17,1.59,1.59,0,0,0-.12-.32c0-.14-.11-.32-.16-.44a1,1,0,0,0-.22-.34.91.91,0,0,0-.35-.22,2,2,0,0,0-.58-.07h-.54v6.65h1.81a2,2,0,0,0,1.4-.38,6.09,6.09,0,0,0,1-2,.51.51,0,0,1,.49-.38H546c.23,0,.34.09.34.26v3.74H537c-.22,0-.33-.09-.33-.25V551Z" transform="translate(-315.5 -471.97)" style="fill:#223059"/><path d="M552.88,551.45v-.54q0-.22.3-.35a1.38,1.38,0,0,0,.73-.91l3.14-12.32-.14-.72a.47.47,0,0,0,0-.27.39.39,0,0,1,0-.12c0-.06.06-.13.2-.18l2.28-.83h.13a.24.24,0,0,1,.24.18l3.67,14.35a2.39,2.39,0,0,0,.09.32,1,1,0,0,0,.14.24,1.1,1.1,0,0,0,.22.18l.34.18c.21.09.31.21.31.34v.46c0,.17-.09.25-.26.25h-4.53c-.24,0-.36-.09-.36-.25V551q0-.24.43-.41c.35-.14.53-.35.53-.6v-.25l-.57-2.2h-3.53l-.57,2.12a.72.72,0,0,0,0,.2c0,.21.2.44.61.7s.4.31.4.44v.46c0,.17-.14.25-.4.25H553.4c-.32,0-.47-.08-.47-.25m6.46-5.25-1.37-5.5-1.46,5.54Z" transform="translate(-315.5 -471.97)" style="fill:#223059"/><path d="M570.67,551.49V551c0-.15.12-.3.35-.43a.91.91,0,0,0,.52-.82V537.19a.91.91,0,0,0-.52-.81c-.24-.12-.35-.26-.35-.43v-.46c0-.16.12-.24.35-.24h2.87a1.05,1.05,0,0,1,.42.05.62.62,0,0,1,.22.28l4.13,8.48v-6.89a.91.91,0,0,0-.52-.81c-.23-.12-.35-.26-.35-.43v-.46c0-.16.12-.24.35-.24h3.05q.3,0,.3.22V536c0,.16-.11.3-.34.43a.91.91,0,0,0-.53.81v14.25c0,.23-.14.34-.39.34h-.6a.58.58,0,0,1-.57-.34l-5.59-11.55v9.85a.91.91,0,0,0,.53.82c.24.12.35.26.35.43v.47q0,.24-.35.24h-3c-.2,0-.3-.09-.3-.24" transform="translate(-315.5 -471.97)" style="fill:#223059"/><path d="M589.28,551.68h-.68c-.22,0-.34-.09-.34-.28v-3.93c0-.27.13-.4.36-.4h.58a.36.36,0,0,1,.31.12,4.29,4.29,0,0,1,.21.84q.56,2.72,2.53,2.72a2,2,0,0,0,1.61-.69,2.5,2.5,0,0,0,.59-1.68,3.4,3.4,0,0,0-.62-1.94A13,13,0,0,0,591.4,544a24.71,24.71,0,0,1-2-1.81,5.13,5.13,0,0,1-.91-1.41,4.16,4.16,0,0,1-.35-1.73,3.89,3.89,0,0,1,1.1-2.79,3.77,3.77,0,0,1,2.72-1.12,4.47,4.47,0,0,1,1.59.33,2.08,2.08,0,0,0,.52.14.68.68,0,0,0,.3-.08,1.06,1.06,0,0,1,.41-.07h.53c.26,0,.4.09.4.28v3.48c0,.17-.1.26-.3.26h-.62a.4.4,0,0,1-.32-.09,4.3,4.3,0,0,1-.26-.76q-.63-2.28-2.06-2.28a1.62,1.62,0,0,0-1.24.51,1.68,1.68,0,0,0-.47,1.17,2.77,2.77,0,0,0,.55,1.58,11.07,11.07,0,0,0,2.18,2.1,12.41,12.41,0,0,1,2.9,3,5.32,5.32,0,0,1,.81,2.8,4.24,4.24,0,0,1-1.34,3.27,4.53,4.53,0,0,1-3.2,1.25,6.65,6.65,0,0,1-1.93-.34,2,2,0,0,0-.5-.11,1,1,0,0,0-.35.1h-.27" transform="translate(-315.5 -471.97)" style="fill:#223059"/><path d="M604.17,540.65a4.61,4.61,0,0,1,.15-1.18,4.17,4.17,0,0,1,.44-1.05,4.47,4.47,0,0,1,1.58-1.58,4.31,4.31,0,0,1,1.05-.44,4.61,4.61,0,0,1,1.18-.15,4.53,4.53,0,0,1,1.17.15,4.69,4.69,0,0,1,1.05.44,4.47,4.47,0,0,1,1.58,1.58,4.31,4.31,0,0,1,.44,1.05,4.2,4.2,0,0,1,.16,1.18,4.25,4.25,0,0,1-.16,1.18,4.53,4.53,0,0,1-.44,1.05,4.09,4.09,0,0,1-.69.91,4.39,4.39,0,0,1-.91.69,4.69,4.69,0,0,1-1.05.44,4.4,4.4,0,0,1-5.57-4.25m.55,0a3.81,3.81,0,0,0,1.12,2.72,3.88,3.88,0,0,0,1.22.82,3.93,3.93,0,0,0,2.53.16,3.57,3.57,0,0,0,.91-.39,3.91,3.91,0,0,0,.78-.61,3.79,3.79,0,0,0,1-1.7,3.84,3.84,0,0,0-1-3.75,3.84,3.84,0,0,0-6.56,2.73m1.46,2.45v-.2a1,1,0,0,0,.36-.05.43.43,0,0,0,.2-.15.6.6,0,0,0,.08-.26V538.8a.82.82,0,0,0-.05-.24.35.35,0,0,0-.16-.16.84.84,0,0,0-.32-.08v-.22h2.25a5.24,5.24,0,0,1,1.23.11,1.22,1.22,0,0,1,.38.18,1.31,1.31,0,0,1,.31.28,1.21,1.21,0,0,1,.21.36,1.14,1.14,0,0,1,.07.43,1.29,1.29,0,0,1-1.11,1.28l.85,1.55q.33.58.65.62v.2h-1.5l-1.25-2.29h-.28V542a2.3,2.3,0,0,0,0,.39.6.6,0,0,0,.1.25.43.43,0,0,0,.23.14,1.81,1.81,0,0,0,.39.06v.2h-2.63Zm2.24-2.57a.94.94,0,0,0,.89-.65,1.29,1.29,0,0,0,.08-.47c0-.71-.36-1.06-1.1-1.06H608v2.15h.36" transform="translate(-315.5 -471.97)" style="fill:#223059"/><path d="M352.63,524.45Z" transform="translate(-315.5 -471.97)" style="fill:#b2292e"/><path d="M353.32,523.61Z" transform="translate(-315.5 -471.97)" style="fill:#b2292e"/><path d="M386.13,519.35a1.32,1.32,0,0,1-1.38-1.26v-9.74q0-4.3-2.12-6.45a8.66,8.66,0,0,0-3.55-2,1.25,1.25,0,0,1-.2-2.29,11.88,11.88,0,0,0,3.83-2.94c1.59-1.92,2.39-4.53,2.42-7.86.1-6-1.86-11.43-5.69-13.11a12.75,12.75,0,0,0-2.16-.81,17,17,0,0,0-2.38-.45c-.91-.1-1.95-.15-3.2-.17s-2.83,0-4.72,0l-13.07.08a1.25,1.25,0,0,0-1.25,1.25h0v2.16a1.25,1.25,0,0,0,1.25,1.25h0a1.25,1.25,0,0,1,1.27,1.23v0c0,5.84-.06,30.58-.11,44.07a1.25,1.25,0,0,1-1.05,1.28h-.69a.75.75,0,0,0-.72.91v2a1.26,1.26,0,0,0,1.26,1.26l.2,0c4.28-.68,7.15-1.06,11.54-1.68a1.26,1.26,0,0,0,1.08-1.24v-1.74a1.1,1.1,0,0,0-1.1-1.1h-.2a1.09,1.09,0,0,1-1.23-1.09c0-5.7.05-11.42.07-17.11a1.25,1.25,0,0,1,1.15-1.24h.32a9.06,9.06,0,0,0,1.1-.18l.91-.08a7.45,7.45,0,0,1,4.8.79c1.07.72,1.59,2.32,1.58,4.83,0,5.16,0,10.34-.06,15.51a1.26,1.26,0,0,0,1.26,1.26h.17c3.68-.51,7-1,10.67-1.42a1.27,1.27,0,0,0,1.1-1.25v-1.58a1.1,1.1,0,0,0-1.07-1.12Zm-12-27.44q0,3.32-1.58,4.7c-1,.91-2.91,1.47-5.58,1.68l-1.15.09c-.42,0-.91.05-1.43.05a.17.17,0,0,1-.17-.16V477.87a1.08,1.08,0,0,1,1.08-1.08h0c1.68,0,4.79,0,5.32.06a4.1,4.1,0,0,1,1.87.57,3.23,3.23,0,0,1,1.19,1.49,7,7,0,0,1,.4,2.72C374.17,484.52,374.19,489,374.17,491.92Z" transform="translate(-315.5 -471.97)" style="fill:#b2292e"/><path d="M316.58,472.26h30.79a1.06,1.06,0,0,1,1.06,1.06v12.61a1.05,1.05,0,0,1-1.05,1.05h-4a1.06,1.06,0,0,1-1.06-1.06h0l.05-7.82a1.06,1.06,0,0,0-1.05-1.07h-3a1.06,1.06,0,0,0-1.06,1.05c0,5.65-.15,32.6-.19,47.09a1.06,1.06,0,0,0,1.05,1.06h.18a1.06,1.06,0,0,1,1.25,1v2.13a1.08,1.08,0,0,1-.91,1.05c-4.7.82-8.63,1.52-13.43,2.42a1.06,1.06,0,0,1-1.24-1.07v-2.35a1.06,1.06,0,0,1,.91-1.05l.73-.12a1.05,1.05,0,0,0,.91-1c0-14.75.14-43.28.16-49.12a1.06,1.06,0,0,0-1.06-1.06h-3.14a1.06,1.06,0,0,0-1.06,1.06h0v7.83a1.06,1.06,0,0,1-1.06,1.06h-3.83a1.09,1.09,0,0,1-1.06-1.08V473.32a1.06,1.06,0,0,1,1.06-1.06Z" transform="translate(-315.5 -471.97)" style="fill:#b2292e"/><path d="M389,473v2.25a.91.91,0,0,0,.91.91h.66a.91.91,0,0,1,.91.91c0,10.57-.12,22.13-.16,32.65,0,4.4,1.29,7.67,3.94,9.78s6.39,2.86,11.28,2.35,8.39-1.92,10.87-4.23a12.22,12.22,0,0,0,3.75-9.36c0-9.27.1-27,.12-31.2a.91.91,0,0,1,.91-.91.91.91,0,0,0,.91-.91v-2.06a.91.91,0,0,0-.91-.91h-8a.91.91,0,0,0-.91.91v2.07a.91.91,0,0,0,.91.91h.53a.91.91,0,0,1,.91.91c0,4.34-.06,22.49-.11,31.95,0,2.63-.67,4.46-2,5.55a9,9,0,0,1-5,1.9q-3.62.35-5.26-1.12c-1.06-1-1.59-2.79-1.58-5.43.05-10.68.11-22.15.16-32.89a.91.91,0,0,1,.91-.91h.58a.91.91,0,0,0,.91-.91v-2a.91.91,0,0,0-.85-.91H401.1c-.66,0-9.63,0-10.36,0h-1.06a.81.81,0,0,0-.43.14A.66.66,0,0,0,389,473Z" transform="translate(-315.5 -471.97)" style="fill:#b2292e"/><path d="M610.7,472.68l-.44.84a1.14,1.14,0,0,1-1.54.47h0c-.39-.21-.76-.39-1.1-.53a11.83,11.83,0,0,0-1.81-.66,10.92,10.92,0,0,0-2-.35,24.22,24.22,0,0,0-2.52-.14,17,17,0,0,0-7.86,1.6,15.16,15.16,0,0,0-5.61,4.74,21.22,21.22,0,0,0-3.31,7.36,39,39,0,0,0-1.06,9.53,48.81,48.81,0,0,0,.91,9.67,25.3,25.3,0,0,0,2.72,7.62A14.86,14.86,0,0,0,592,518a15.84,15.84,0,0,0,7.24,2.35,15.39,15.39,0,0,0,4.68-.15,14.24,14.24,0,0,0,3.57-1.49,1.13,1.13,0,0,1,1.42.28l1.2,1.49a1.13,1.13,0,0,0,.77.42l3.4.35a1.14,1.14,0,0,0,1.26-1.13q0-8.69-.07-17.39a1.14,1.14,0,0,1,1.15-1.14h.09a1.13,1.13,0,0,0,1.27-1.11v-1.7a1.14,1.14,0,0,0-1.08-1.15c-4.86-.31-9.24-.55-14.09-.81a1.15,1.15,0,0,0-1.2,1.09v1.57a1.13,1.13,0,0,0,1.07,1.12l1.25.07a1.15,1.15,0,0,1,1.08,1.13c0,3.47,0,6.93,0,10.4a4.81,4.81,0,0,1-1.4,3.07c-.82.82-2.15,1.16-4,1a6.92,6.92,0,0,1-2.93-.75,3.88,3.88,0,0,1-1.52-1.61,5.72,5.72,0,0,1-.56-2.44c0-1-.05-2-.06-3.18q-.05-12.35-.11-24.67a12.57,12.57,0,0,1,.44-3.75,5.28,5.28,0,0,1,1.36-2.35,5,5,0,0,1,2.24-1.2,12.61,12.61,0,0,1,3.07-.3,13,13,0,0,1,2.78.33,3.53,3.53,0,0,1,1.85,1.06,5.23,5.23,0,0,1,1,2.28,18.56,18.56,0,0,1,.34,3.9V486a1.13,1.13,0,0,0,1.09,1.13l5.05.22a1.13,1.13,0,0,0,1.18-1.08s0,0,0-.06c0-4.14,0-8.7-.06-12.84a1.11,1.11,0,0,0-1.1-1.09h-2.31A.61.61,0,0,0,610.7,472.68Z" transform="translate(-315.5 -471.97)" style="fill:#b2292e"/><path d="M637.63,498.31a61.42,61.42,0,0,0,1.05,11.92,26,26,0,0,0,3,8.3,15,15,0,0,0,5,5.14,18.11,18.11,0,0,0,6.95,2.4c5.61.81,9.65-.65,12.13-4.64s3.69-10.81,3.67-20.45a80.51,80.51,0,0,0-1.13-13.93,27.17,27.17,0,0,0-3.07-8.64,12.4,12.4,0,0,0-5-4.84,15.57,15.57,0,0,0-6.87-1.58,16.16,16.16,0,0,0-7.16,1.29,11.47,11.47,0,0,0-4.94,4.44,22.17,22.17,0,0,0-2.83,7.85,74.79,74.79,0,0,0-.82,12.68m21.11,1.81q0,8.29.07,16.62a14.71,14.71,0,0,1-.3,3.42,3.62,3.62,0,0,1-1,1.81,2.72,2.72,0,0,1-1.64.68,10.87,10.87,0,0,1-2.3-.11,12,12,0,0,1-2.3-.53,3.81,3.81,0,0,1-1.68-1.12,5.43,5.43,0,0,1-1-2,13.79,13.79,0,0,1-.36-3.43c0-5.43,0-10.81-.05-16.22.14-3.92.06-15.81-.12-17.3v-1.63c0-3.18,1.76-4.72,5.29-4.6a6,6,0,0,1,3.62,1.12,4,4,0,0,1,1.49,2.72c0,6.49.12,14,.18,20.54" transform="translate(-315.5 -471.97)" style="fill:#b2292e"/><path d="M708.5,473.39a1.16,1.16,0,0,0-1.16-1.14h-8.39a1.45,1.45,0,0,0-1.45,1.45h0v2.16a1.19,1.19,0,0,0,1.16,1.15H699a1.15,1.15,0,0,1,1.16,1.12v31.2c0,2.06,0,11.24,0,11.24l-1.46-5.43c-.45-1.69-9.89-37.28-11.09-41.84a1.45,1.45,0,0,0-1.39-1H673.49a1.39,1.39,0,0,0-1.3,1.27v2a1.12,1.12,0,0,0,.6,1,1.1,1.1,0,0,0,.48.14h.45a1.15,1.15,0,0,1,1.1,1.12c0,14.58,0,30.71.07,45.28a1.14,1.14,0,0,1-.79,1.05,1,1,0,0,1-.55,0,1.17,1.17,0,0,0-1.32,1.15v1.81a1.22,1.22,0,0,0,1,1.15l8.57,1.18a1.1,1.1,0,0,0,.52,0,1.17,1.17,0,0,0,.8-1.09v-1.61a1.39,1.39,0,0,0-1.21-1.39,3.23,3.23,0,0,1-.53-.12c-.66-.19-.83-.65-.83-1.34,0-.31,0-23.17-.06-35.32V483l1.42,5.2C686,502.16,689.21,515,694,531a1.3,1.3,0,0,0,.91,1l9.54,1.76a1.06,1.06,0,0,0,.51,0,1.14,1.14,0,0,0,.85-1.07h0c0-16.65-.06-48-.08-54.43a1.15,1.15,0,0,1,1.15-1.15h.38a1.09,1.09,0,0,0,.49-.12,1.12,1.12,0,0,0,.66-1v-2.44Zm-2.63,51.71Z" transform="translate(-315.5 -471.97)" style="fill:#b2292e"/><path d="M427.05,516.36" transform="translate(-315.5 -471.97)" style="fill:#b2292e"/><path d="M427.85,515.54Z" transform="translate(-315.5 -471.97)" style="fill:#b2292e"/><path d="M452.3,508.65l-2.85.19a.91.91,0,0,0-.91.91v3.5a.91.91,0,0,1-.91.91c-2.43.14-4.84.32-7.24.49a.91.91,0,0,1-1-.91q0-8.15.06-16.3a.91.91,0,0,1,.91-.91l3.33-.14a.91.91,0,0,1,1,.83s0,.05,0,.08v2.64a.91.91,0,0,0,.9.91h.09l3.79-.16a.91.91,0,0,0,.91-.91V489.62a.91.91,0,0,0-.9-.91h-.07l-3.79.11a.91.91,0,0,0-.91.91v2a.91.91,0,0,1-.91.91l-3.31.15a.91.91,0,0,1-1-.83s0-.05,0-.08V477.14a.91.91,0,0,1,.91-.91h7.36a.91.91,0,0,1,.91.91V480a.91.91,0,0,0,.91.91h2.67a.91.91,0,0,0,.91-.91v-6.77a.91.91,0,0,0-.91-.91c-7.71.06-20.53,0-24.08,0a.91.91,0,0,0-.91.91v2.06a.91.91,0,0,0,.86.95h0a.91.91,0,0,1,.91.91c-.05,12.42-.09,25-.15,37.45a.91.91,0,0,1-.91.91h-.29a.74.74,0,0,0-.7.78v0h0v1.91a.91.91,0,0,0,.9.91H428c3.62-.27,16.3-1.17,24.31-1.74a.91.91,0,0,0,.91-.91v-6.93a.91.91,0,0,0-.9-.92Z" transform="translate(-315.5 -471.97)" style="fill:#b2292e"/><path d="M539,513.65Z" transform="translate(-315.5 -471.97)" style="fill:#b2292e"/><path d="M539.85,512.86Z" transform="translate(-315.5 -471.97)" style="fill:#b2292e"/><path d="M562.91,507.26a.91.91,0,0,0-.91-.91l-4.26-.18a.91.91,0,0,0-.91.91v5.5a.91.91,0,0,1-.91.91q-2.51-.13-5-.22a.91.91,0,0,1-.91-.91q0-11.15-.1-35.62a.91.91,0,0,1,.91-.91h0a.91.91,0,0,0,.91-.91v-1.81a.91.91,0,0,0-.91-.91l-10.9,0a.91.91,0,0,0-.91.91h0v1.75a.91.91,0,0,0,.91.91H540a.91.91,0,0,1,.91.91q0,17.66.08,35.32a.91.91,0,0,1-.91.91h-.26a.75.75,0,0,0-.7.8h0v1.81a.91.91,0,0,0,.91.91c7.66.24,14.4.54,22,1a.91.91,0,0,0,1-.85s0,0,0-.06C562.92,513.37,562.92,510.31,562.91,507.26Z" transform="translate(-315.5 -471.97)" style="fill:#b2292e"/><path d="M567.07,514.91Z" transform="translate(-315.5 -471.97)" style="fill:#b2292e"/><path d="M579.69,515.58a.91.91,0,0,0-.85-.91h-.14a.91.91,0,0,1-.85-.91q-.07-18.35-.15-36.69a.91.91,0,0,1,.91-.91.91.91,0,0,0,.91-.91V473.4a.91.91,0,0,0-.91-.91l-10.78-.09a.91.91,0,0,0-.91.91v1.81a.91.91,0,0,0,.91.91.91.91,0,0,1,1,.85s0,0,0,.06q.08,18.12.14,36.22a.91.91,0,0,1-.81.91,1.36,1.36,0,0,0-.66.09.72.72,0,0,0-.41.74v1.81a.91.91,0,0,0,.85.91c3.38.19,7.41.4,10.8.63a.91.91,0,0,0,1-.84s0,0,0-.07Q579.69,516.47,579.69,515.58Z" transform="translate(-315.5 -471.97)" style="fill:#b2292e"/><path d="M622.27,518.25" transform="translate(-315.5 -471.97)" style="fill:#b2292e"/><path d="M621.46,519.08Z" transform="translate(-315.5 -471.97)" style="fill:#b2292e"/><path d="M633.11,519.25H633a.91.91,0,0,1-.84-.91c-.05-13.38-.13-27.8-.18-41.2a.91.91,0,0,1,.91-.91h0a.91.91,0,0,0,.91-.91v-2.16a.91.91,0,0,0-.91-.91H622.21a.91.91,0,0,0-.91.91v2.1a.91.91,0,0,0,.91.91h0a.91.91,0,0,1,.91.91c.05,13.12.11,27.06.17,40.2a.91.91,0,0,1-.9.91h-.23a.74.74,0,0,0-.7.78v0h0v2.08a.91.91,0,0,0,.84.91c2.06.18,7.34.64,10.65,1a.91.91,0,0,0,1-.91v-2A1,1,0,0,0,633.11,519.25Z" transform="translate(-315.5 -471.97)" style="fill:#b2292e"/><path d="M503.61,512.83a.5.5,0,0,0-.5-.5h-.91a.5.5,0,0,1-.5-.5h0v-9.25a7.55,7.55,0,0,0-2.16-5.78,11.86,11.86,0,0,0-5.33-2.45.5.5,0,0,1,0-1,12.41,12.41,0,0,0,5.43-2.86,9.14,9.14,0,0,0,2.39-6.76q0-7.93-5.76-10.22a14.94,14.94,0,0,0-2.16-.75,17.45,17.45,0,0,0-2.38-.42c-.91-.1-2-.17-3.21-.21s-2.83,0-4.71,0H471.07a.91.91,0,0,0-.91.91h0v1.64c0,.78.61,1,1.1,1s.76.24.76,1.09v35.44c0,.53-.32.7-.73.7a2.47,2.47,0,0,0-.63.06.64.64,0,0,0-.51.6v2.25a.63.63,0,0,0,.64.62c4.26-.08,7.4-.24,11.69-.36a.5.5,0,0,0,.49-.5V513.1a.5.5,0,0,0-.5-.5h-.86a.49.49,0,0,1-.51-.47s0,0,0,0V496.76c0-.59.72-.54,1.1-.55.79,0,1.58,0,2.37,0a8.94,8.94,0,0,1,4.82,1c1.07.68,1.59,2.09,1.59,4.24q0,7,0,14a.5.5,0,0,0,.5.5h0c3.88-.06,7.71-.1,11.59-.11a.5.5,0,0,0,.5-.5h0C503.61,514.64,503.61,513.49,503.61,512.83Zm-12.6-26c0,2.38-.34,4-1.53,4.82-1,.72-2.9,1.09-5.59,1.13h-2.41c-.46,0-.34-.29-.34-.49V476.47a.43.43,0,0,1,.36-.5h3.57a22.64,22.64,0,0,1,2.47.11,4.81,4.81,0,0,1,1.87.57,3,3,0,0,1,1.2,1.3,7.79,7.79,0,0,1,.38,3C491,483,491,484.67,491,486.79Z" transform="translate(-315.5 -471.97)" style="fill:#b2292e"/><path d="M508.6,515.88c8.64,0,16.51.13,25.14.36a.91.91,0,0,0,1-.85s0,0,0-.06V508.6a.91.91,0,0,0-.91-.91l-3.68-.09a.91.91,0,0,0-.95.86s0,0,0,0v3.22a.91.91,0,0,1-.91.91c-2.44-.05-4.88-.08-7.32-.11a.91.91,0,0,1-.91-.91V496.13a.91.91,0,0,1,.91-.91h3.38a.91.91,0,0,1,.91.91v2.6a.91.91,0,0,0,.91.91l3.83.05a.91.91,0,0,0,.91-.91V489A.91.91,0,0,0,530,488h-3.83a.91.91,0,0,0-.91.91v1.81a.91.91,0,0,1-.91.91h-3.37a.91.91,0,0,1-.91-.91v-14a.91.91,0,0,1,.91-.91h7.4a.91.91,0,0,1,.91.91v3.05a.91.91,0,0,0,.91.91h3.67a.91.91,0,0,0,.91-.91v-6.59a.91.91,0,0,0-.91-.91H508.6a.91.91,0,0,0-.91.91v1.64a.91.91,0,0,0,.91.91.91.91,0,0,1,.91.91v34.82a.91.91,0,0,1-.91.91h0a.91.91,0,0,0-.91.91v1.6a.91.91,0,0,0,.79,1Z" transform="translate(-315.5 -471.97)" style="fill:#b2292e"/></svg>